<?xml version="1.0" encoding="UTF-8" standalone="no"?>
<!DOCTYPE svg PUBLIC "-//W3C//DTD SVG 1.1//EN" "http://www.w3.org/Graphics/SVG/1.1/DTD/svg11.dtd">
<svg width="100%" height="100%" viewBox="0 0 16 16" version="1.1" xmlns="http://www.w3.org/2000/svg" xmlns:xlink="http://www.w3.org/1999/xlink" xml:space="preserve" xmlns:serif="http://www.serif.com/" style="fill-rule:evenodd;clip-rule:evenodd;stroke-linecap:round;stroke-linejoin:round;stroke-miterlimit:1.5;">
    <g transform="matrix(0.875,0,0,0.875,1,1)">
        <path d="M9.846,0.216C8.632,-0.072 7.368,-0.072 6.154,0.216L6.462,2.539C6.031,2.66 5.616,2.832 5.226,3.051L3.801,1.19C2.739,1.845 1.845,2.739 1.19,3.801L3.051,5.226C2.832,5.616 2.66,6.031 2.539,6.462L0.216,6.154C-0.072,7.368 -0.072,8.632 0.216,9.846L2.539,9.538C2.66,9.969 2.832,10.384 3.051,10.774L1.19,12.199C1.845,13.261 2.739,14.155 3.801,14.81L5.226,12.949C5.616,13.168 6.031,13.34 6.462,13.461L6.154,15.784C7.368,16.072 8.632,16.072 9.846,15.784L9.538,13.461C9.969,13.34 10.384,13.168 10.774,12.949L12.199,14.81C13.261,14.155 14.155,13.261 14.81,12.199L12.949,10.774C13.168,10.384 13.34,9.969 13.461,9.538L15.784,9.846C16.072,8.632 16.072,7.368 15.784,6.154L13.461,6.462C13.34,6.031 13.168,5.616 12.949,5.226L14.81,3.801C14.155,2.739 13.261,1.845 12.199,1.19L10.774,3.051C10.384,2.832 9.969,2.66 9.538,2.539L9.846,0.216ZM8,4.872C9.726,4.872 11.128,6.274 11.128,8C11.128,9.726 9.726,11.128 8,11.128C6.274,11.128 4.872,9.726 4.872,8C4.872,6.274 6.274,4.872 8,4.872Z" style="fill:rgb(178,178,178);stroke:rgb(119,119,119);stroke-width:1.37px;"/>
    </g>
</svg>
