<?xml version="1.0" encoding="UTF-8" standalone="no"?>
<!DOCTYPE svg PUBLIC "-//W3C//DTD SVG 1.1//EN" "http://www.w3.org/Graphics/SVG/1.1/DTD/svg11.dtd">
<svg width="100%" height="100%" viewBox="0 0 238 128" version="1.1" xmlns="http://www.w3.org/2000/svg" xmlns:xlink="http://www.w3.org/1999/xlink" xml:space="preserve" xmlns:serif="http://www.serif.com/" style="fill-rule:evenodd;clip-rule:evenodd;stroke-linejoin:round;stroke-miterlimit:2;">
    <g transform="matrix(1,0,0,1,-25.1201,2.30236e-15)">
        <g transform="matrix(1,0,0,1,-18,-9)">
            <g transform="matrix(1.25419,0,0,1.25419,-14.5726,-16.0458)">
                <path d="M80,122C80,122 46,124 46,94C46,84 51,77 63,62C73.073,49.409 76,37 76,20C76,19 92,43 92,58C92,84.926 52,91 80,122Z" style="fill:white;"/>
                <g transform="matrix(0.478261,0,0,0.460794,63,60.7981)">
                    <path d="M77.364,124.138C77.364,124.138 39.727,125.926 39.727,95.926C39.727,85.926 46.545,76.203 58.545,61.203C68.618,48.612 77.364,32.629 77.364,15.629C77.364,14.629 94.091,37.522 94.091,52.522C94.091,79.448 49.364,93.138 77.364,124.138Z" style="fill:white;"/>
                </g>
            </g>
        </g>
        <g transform="matrix(1.72368,0,0,1.72368,-31.75,-41.3684)">
            <path d="M104.4,83.405L133,39L171,98L156.602,98C143.691,85.969 123.457,86.03 110.006,98L95,98L99.617,90.832C101.167,89.215 102.881,87.768 104.665,86.474C113.149,80.321 123.276,77.607 125.794,77L142,77L133,63L125.754,74.272C124.731,74.498 113.877,77.004 104.4,83.405Z" style="fill:white;"/>
        </g>
        <g transform="matrix(1.72368,0,0,1.72368,-37.7869,-41.3684)">
            <path d="M148.546,49.254C150.781,46.495 152,43.051 152,39.5C152,30.945 145.055,24 136.5,24C127.945,24 121,30.945 121,39.5C121,43.051 122.219,46.495 124.454,49.254L126.137,51.155L130.477,44.377C129.36,42.997 128.75,41.276 128.75,39.5C128.75,35.223 132.223,31.75 136.5,31.75C140.777,31.75 144.25,35.223 144.25,39.5C144.25,41.276 143.64,42.997 142.523,44.377L146.875,51.125L148.546,49.254Z" style="fill:white;"/>
        </g>
    </g>
</svg>
