# Blender v2.93.5 OBJ File: 'waypoint2.blend'
# www.blender.org
v 0.060000 -0.000000 0.060000
v -0.059999 -4.000000 0.059999
v 0.060001 -4.000000 0.059999
v -0.060000 0.000000 -0.060000
v -0.059999 -4.000000 -0.060001
v -0.060000 -0.000000 0.060000
v 0.060000 0.000000 -0.060000
v 0.060001 -4.000000 -0.060001
v 0.401480 -3.975857 0.040552
v 0.000002 -5.361859 0.040552
v 0.393766 -3.975857 -0.037772
v 0.370919 -3.975857 -0.113087
v 0.333818 -3.975857 -0.182497
v 0.283889 -3.975857 -0.243336
v 0.223051 -3.975857 -0.293265
v 0.153641 -3.975857 -0.330365
v 0.078326 -3.975857 -0.353211
v 0.000001 -3.975857 -0.360926
v -0.078323 -3.975857 -0.353211
v -0.153638 -3.975857 -0.330365
v -0.223048 -3.975858 -0.293265
v -0.283886 -3.975858 -0.243336
v -0.333815 -3.975858 -0.182497
v -0.370916 -3.975858 -0.113087
v -0.393763 -3.975858 -0.037772
v -0.401477 -3.975858 0.040552
v -0.393763 -3.975858 0.118877
v -0.370916 -3.975858 0.194192
v -0.333815 -3.975858 0.263602
v -0.283886 -3.975858 0.324441
v -0.223048 -3.975858 0.374370
v -0.153638 -3.975858 0.411471
v -0.078323 -3.975858 0.434317
v 0.000001 -3.975858 0.442031
v 0.078326 -3.975858 0.434317
v 0.153641 -3.975858 0.411471
v 0.223051 -3.975857 0.374370
v 0.283889 -3.975857 0.324441
v 0.333818 -3.975857 0.263602
v 0.370919 -3.975857 0.194192
v 0.393766 -3.975857 0.118877
vt 0.875000 0.500000
vt 0.625000 0.750000
vt 0.625000 0.500000
vt 0.375000 1.000000
vt 0.375000 0.750000
vt 0.625000 0.000000
vt 0.375000 0.250000
vt 0.375000 0.000000
vt 0.375000 0.500000
vt 0.125000 0.750000
vt 0.125000 0.500000
vt 0.625000 0.250000
vt 0.250000 0.490000
vt 0.250000 0.250000
vt 0.296822 0.485388
vt 0.341844 0.471731
vt 0.383337 0.449553
vt 0.419706 0.419706
vt 0.449553 0.383337
vt 0.471731 0.341844
vt 0.485388 0.296822
vt 0.490000 0.250000
vt 0.485388 0.203178
vt 0.471731 0.158156
vt 0.449553 0.116663
vt 0.419706 0.080294
vt 0.383337 0.050447
vt 0.341844 0.028269
vt 0.296822 0.014612
vt 0.250000 0.010000
vt 0.203178 0.014612
vt 0.158156 0.028269
vt 0.116663 0.050447
vt 0.080294 0.080294
vt 0.050447 0.116663
vt 0.028269 0.158156
vt 0.014612 0.203178
vt 0.010000 0.250000
vt 0.014612 0.296822
vt 0.028269 0.341844
vt 0.050447 0.383337
vt 0.080294 0.419706
vt 0.116663 0.449553
vt 0.158156 0.471731
vt 0.550447 0.383337
vt 0.703178 0.485388
vt 0.796822 0.014612
vt 0.203178 0.485388
vt 0.875000 0.750000
vt 0.625000 1.000000
vt 0.750000 0.490000
vt 0.796822 0.485388
vt 0.841844 0.471731
vt 0.883337 0.449553
vt 0.919706 0.419706
vt 0.949553 0.383337
vt 0.971731 0.341844
vt 0.985388 0.296822
vt 0.990000 0.250000
vt 0.985388 0.203178
vt 0.971731 0.158156
vt 0.949553 0.116663
vt 0.919706 0.080294
vt 0.883337 0.050447
vt 0.841844 0.028269
vt 0.750000 0.010000
vt 0.703178 0.014612
vt 0.658156 0.028269
vt 0.616663 0.050447
vt 0.580294 0.080294
vt 0.514612 0.203178
vt 0.550447 0.116663
vt 0.528269 0.158156
vt 0.510000 0.250000
vt 0.514612 0.296822
vt 0.528269 0.341844
vt 0.580294 0.419706
vt 0.616663 0.449553
vt 0.658156 0.471731
vn 0.5774 0.5774 0.5774
vn -0.5774 -0.5774 0.5773
vn 0.5774 -0.5774 0.5774
vn -0.5774 0.5774 -0.5774
vn -0.5774 -0.5774 -0.5774
vn -0.5774 0.5774 0.5774
vn 0.5774 0.5774 -0.5774
vn 0.5774 -0.5774 -0.5773
vn 0.8161 0.5779 -0.0000
vn -0.0000 -1.0000 0.0000
vn 0.8005 0.5779 -0.1592
vn 0.7540 0.5779 -0.3123
vn 0.6786 0.5779 -0.4534
vn 0.5771 0.5779 -0.5771
vn 0.4534 0.5779 -0.6786
vn 0.3123 0.5779 -0.7540
vn 0.1592 0.5779 -0.8004
vn -0.0000 0.5778 -0.8161
vn -0.1592 0.5779 -0.8004
vn -0.3123 0.5779 -0.7540
vn -0.4534 0.5779 -0.6786
vn -0.5771 0.5779 -0.5771
vn -0.6786 0.5779 -0.4534
vn -0.7540 0.5779 -0.3123
vn -0.8005 0.5779 -0.1592
vn -0.8161 0.5779 -0.0000
vn -0.8005 0.5779 0.1592
vn -0.7540 0.5779 0.3123
vn -0.6786 0.5779 0.4534
vn -0.5771 0.5779 0.5771
vn -0.4534 0.5779 0.6786
vn -0.3123 0.5779 0.7540
vn -0.1592 0.5779 0.8005
vn -0.0000 0.5779 0.8161
vn 0.1592 0.5779 0.8005
vn 0.3123 0.5778 0.7540
vn 0.4534 0.5779 0.6786
vn 0.5771 0.5779 0.5771
vn 0.6786 0.5779 0.4534
vn 0.7540 0.5779 0.3123
vn 0.8005 0.5779 0.1592
s 1
f 1/1/1 2/2/2 3/3/3
f 2/2/2 4/4/4 5/5/5
f 6/6/6 7/7/7 4/8/4
f 8/9/8 4/10/4 7/11/7
f 3/3/3 5/5/5 8/9/8
f 1/12/1 8/9/8 7/7/7
f 9/13/9 10/14/10 11/15/11
f 11/15/11 10/14/10 12/16/12
f 12/16/12 10/14/10 13/17/13
f 13/17/13 10/14/10 14/18/14
f 14/18/14 10/14/10 15/19/15
f 15/19/15 10/14/10 16/20/16
f 16/20/16 10/14/10 17/21/17
f 17/21/17 10/14/10 18/22/18
f 18/22/18 10/14/10 19/23/19
f 19/23/19 10/14/10 20/24/20
f 20/24/20 10/14/10 21/25/21
f 21/25/21 10/14/10 22/26/22
f 22/26/22 10/14/10 23/27/23
f 23/27/23 10/14/10 24/28/24
f 24/28/24 10/14/10 25/29/25
f 25/29/25 10/14/10 26/30/26
f 26/30/26 10/14/10 27/31/27
f 27/31/27 10/14/10 28/32/28
f 28/32/28 10/14/10 29/33/29
f 29/33/29 10/14/10 30/34/30
f 30/34/30 10/14/10 31/35/31
f 31/35/31 10/14/10 32/36/32
f 32/36/32 10/14/10 33/37/33
f 33/37/33 10/14/10 34/38/34
f 34/38/34 10/14/10 35/39/35
f 35/39/35 10/14/10 36/40/36
f 36/40/36 10/14/10 37/41/37
f 37/41/37 10/14/10 38/42/38
f 38/42/38 10/14/10 39/43/39
f 39/43/39 10/14/10 40/44/40
f 37/45/37 41/46/41 25/47/25
f 40/44/40 10/14/10 41/48/41
f 41/48/41 10/14/10 9/13/9
f 1/1/1 6/49/6 2/2/2
f 2/2/2 6/50/6 4/4/4
f 6/6/6 1/12/1 7/7/7
f 8/9/8 5/5/5 4/10/4
f 3/3/3 2/2/2 5/5/5
f 1/12/1 3/3/3 8/9/8
f 41/46/41 9/51/9 11/52/11
f 11/52/11 12/53/12 13/54/13
f 13/54/13 14/55/14 15/56/15
f 15/56/15 16/57/16 17/58/17
f 17/58/17 18/59/18 19/60/19
f 19/60/19 20/61/20 21/62/21
f 21/62/21 22/63/22 23/64/23
f 23/64/23 24/65/24 25/47/25
f 25/47/25 26/66/26 27/67/27
f 27/67/27 28/68/28 29/69/29
f 29/69/29 30/70/30 33/71/33
f 30/70/30 31/72/31 33/71/33
f 31/72/31 32/73/32 33/71/33
f 33/71/33 34/74/34 37/45/37
f 34/74/34 35/75/35 37/45/37
f 35/75/35 36/76/36 37/45/37
f 37/45/37 38/77/38 41/46/41
f 38/77/38 39/78/39 41/46/41
f 39/78/39 40/79/40 41/46/41
f 41/46/41 11/52/11 13/54/13
f 13/54/13 15/56/15 41/46/41
f 15/56/15 17/58/17 41/46/41
f 17/58/17 19/60/19 21/62/21
f 21/62/21 23/64/23 25/47/25
f 25/47/25 27/67/27 33/71/33
f 27/67/27 29/69/29 33/71/33
f 17/58/17 21/62/21 41/46/41
f 21/62/21 25/47/25 41/46/41
f 33/71/33 37/45/37 25/47/25
