# Blender v2.93.5 OBJ File: 'waypoint2.blend'
# www.blender.org
v 0.262003 -0.219846 1.939693
v 0.492404 -0.413176 1.766044
v 0.663414 -0.556670 1.500000
v 0.754407 -0.633022 1.173648
v 0.754407 -0.633022 0.826352
v 0.663414 -0.556670 0.500000
v 0.492404 -0.413176 0.233956
v 0.262003 -0.219846 0.060307
v 0.059391 -0.336824 1.939693
v 0.111619 -0.633022 1.766044
v 0.150384 -0.852869 1.500000
v 0.171010 -0.969846 1.173648
v 0.171010 -0.969846 0.826352
v 0.150384 -0.852869 0.500000
v 0.111619 -0.633022 0.233956
v 0.059391 -0.336824 0.060307
v -0.171010 -0.296198 1.939693
v -0.321394 -0.556670 1.766044
v -0.433013 -0.750000 1.500000
v -0.492404 -0.852869 1.173648
v -0.492404 -0.852869 0.826352
v -0.433013 -0.750000 0.500000
v -0.321394 -0.556670 0.233956
v -0.171010 -0.296198 0.060307
v -0.321394 -0.116978 1.939693
v -0.604023 -0.219846 1.766044
v -0.813798 -0.296198 1.500000
v -0.925417 -0.336824 1.173648
v -0.925417 -0.336824 0.826352
v -0.813798 -0.296198 0.500000
v -0.604023 -0.219846 0.233956
v -0.321394 -0.116978 0.060307
v -0.000000 0.000000 2.000000
v -0.321394 0.116978 1.939693
v -0.604023 0.219846 1.766044
v -0.813798 0.296198 1.500000
v -0.925417 0.336824 1.173648
v -0.925417 0.336824 0.826352
v -0.813798 0.296198 0.500000
v -0.604023 0.219846 0.233956
v -0.321394 0.116978 0.060307
v -0.171010 0.296198 1.939693
v -0.321394 0.556670 1.766044
v -0.433013 0.750000 1.500000
v -0.492404 0.852868 1.173648
v -0.492404 0.852868 0.826352
v -0.433013 0.750000 0.500000
v -0.321394 0.556670 0.233956
v -0.171010 0.296198 0.060307
v 0.059391 0.336824 1.939693
v 0.111619 0.633022 1.766044
v 0.150384 0.852868 1.500000
v 0.171010 0.969846 1.173648
v 0.171010 0.969846 0.826352
v 0.150384 0.852868 0.500000
v 0.111619 0.633022 0.233956
v 0.059391 0.336824 0.060307
v 0.262002 0.219846 1.939693
v 0.492404 0.413176 1.766044
v 0.663414 0.556670 1.500000
v 0.754406 0.633022 1.173648
v 0.754406 0.633022 0.826352
v 0.663414 0.556670 0.500000
v 0.492404 0.413176 0.233956
v 0.262003 0.219846 0.060307
v -0.000000 0.000000 0.000000
v 0.342020 0.000000 1.939693
v 0.642788 0.000000 1.766044
v 0.866025 0.000000 1.500000
v 0.984808 0.000000 1.173648
v 0.984808 0.000000 0.826352
v 0.866025 0.000000 0.500000
v 0.642787 0.000000 0.233956
v 0.342020 0.000000 0.060307
vt 0.666667 0.666667
vt 0.555555 0.777778
vt 0.555555 0.666667
vt 0.666667 0.333333
vt 0.555555 0.222222
vt 0.666667 0.222222
vt 0.555555 0.555556
vt 0.666667 0.555556
vt 0.666667 0.888889
vt 0.611111 1.000000
vt 0.555555 0.888889
vt 0.555555 0.111111
vt 0.666667 0.111111
vt 0.555555 0.444444
vt 0.666667 0.444444
vt 0.666667 0.777778
vt 0.611111 0.000000
vt 0.555555 0.333333
vt 0.444444 0.555556
vt 0.500000 1.000000
vt 0.444444 0.888889
vt 0.444444 0.111111
vt 0.444444 0.444444
vt 0.444444 0.777778
vt 0.500000 0.000000
vt 0.444444 0.333333
vt 0.444444 0.666667
vt 0.444444 0.222222
vt 0.333333 0.777778
vt 0.388889 0.000000
vt 0.333333 0.111111
vt 0.333333 0.444444
vt 0.333333 0.333333
vt 0.333333 0.666667
vt 0.333333 0.222222
vt 0.333333 0.555556
vt 0.388889 1.000000
vt 0.333333 0.888889
vt 0.222222 0.222222
vt 0.222222 0.555556
vt 0.277778 1.000000
vt 0.222222 0.888889
vt 0.222222 0.111111
vt 0.222222 0.444444
vt 0.222222 0.777778
vt 0.277778 0.000000
vt 0.222222 0.333333
vt 0.222222 0.666667
vt 0.111111 0.444444
vt 0.111111 0.777778
vt 0.166667 0.000000
vt 0.111111 0.111111
vt 0.111111 0.333333
vt 0.111111 0.666667
vt 0.111111 0.222222
vt 0.111111 0.555556
vt 0.166667 1.000000
vt 0.111111 0.888889
vt 0.000000 0.666667
vt 0.000000 0.222222
vt 0.000000 0.555556
vt 0.055556 1.000000
vt 0.000000 0.888889
vt 0.000000 0.111111
vt 0.000000 0.444444
vt 0.000000 0.777778
vt 0.055556 0.000000
vt 0.000000 0.333333
vt 1.000000 0.888889
vt 0.944445 1.000000
vt 0.888889 0.888889
vt 1.000000 0.222222
vt 0.888889 0.111111
vt 1.000000 0.111111
vt 1.000000 0.555556
vt 0.888889 0.444444
vt 1.000000 0.444444
vt 0.888889 0.777778
vt 1.000000 0.777778
vt 0.944445 0.000000
vt 1.000000 0.333333
vt 0.888889 0.333333
vt 0.888889 0.666667
vt 1.000000 0.666667
vt 0.888889 0.222222
vt 0.888889 0.555556
vt 0.833333 0.000000
vt 0.777778 0.111111
vt 0.777778 0.444444
vt 0.777778 0.333333
vt 0.777778 0.777778
vt 0.777778 0.666667
vt 0.777778 0.222222
vt 0.777778 0.555556
vt 0.833333 1.000000
vt 0.777778 0.888889
vt 0.722222 1.000000
vt 0.722222 0.000000
vn 0.8749 0.0000 0.4842
vn 0.5088 -0.4269 0.7476
vn 0.6702 -0.5624 0.4842
vn 0.8749 0.0000 -0.4842
vn 0.5088 -0.4269 -0.7476
vn 0.6641 0.0000 -0.7476
vn 0.7552 -0.6337 0.1675
vn 0.9859 0.0000 0.1675
vn 0.3751 0.0000 0.9270
vn 0.0000 0.0000 1.0000
vn 0.2873 -0.2411 0.9270
vn 0.2873 -0.2411 -0.9270
vn 0.3751 0.0000 -0.9270
vn 0.7552 -0.6337 -0.1675
vn 0.9859 0.0000 -0.1675
vn 0.6641 0.0000 0.7476
vn 0.0000 0.0000 -1.0000
vn 0.6702 -0.5624 -0.4842
vn 0.1712 -0.9709 0.1675
vn 0.0651 -0.3694 0.9270
vn 0.0651 -0.3694 -0.9270
vn 0.1712 -0.9709 -0.1675
vn 0.1153 -0.6541 0.7476
vn 0.1519 -0.8616 -0.4842
vn 0.1519 -0.8616 0.4842
vn 0.1153 -0.6541 -0.7476
vn -0.3321 -0.5752 0.7476
vn -0.1875 -0.3248 -0.9270
vn -0.4929 -0.8538 -0.1675
vn -0.4375 -0.7577 -0.4842
vn -0.4375 -0.7577 0.4842
vn -0.3321 -0.5752 -0.7476
vn -0.4929 -0.8538 0.1675
vn -0.1875 -0.3248 0.9270
vn -0.6241 -0.2271 -0.7476
vn -0.9264 -0.3372 0.1675
vn -0.3525 -0.1283 0.9270
vn -0.3525 -0.1283 -0.9270
vn -0.9264 -0.3372 -0.1675
vn -0.6241 -0.2271 0.7476
vn -0.8222 -0.2992 -0.4842
vn -0.8222 -0.2992 0.4842
vn -0.9264 0.3372 -0.1675
vn -0.6241 0.2271 0.7476
vn -0.3525 0.1283 -0.9270
vn -0.8222 0.2992 -0.4842
vn -0.8222 0.2992 0.4842
vn -0.6241 0.2271 -0.7476
vn -0.9264 0.3372 0.1675
vn -0.3525 0.1283 0.9270
vn -0.4375 0.7577 0.4842
vn -0.3321 0.5752 -0.7476
vn -0.4929 0.8538 0.1675
vn -0.1875 0.3248 0.9270
vn -0.1875 0.3248 -0.9270
vn -0.4929 0.8538 -0.1675
vn -0.3321 0.5752 0.7476
vn -0.4375 0.7577 -0.4842
vn 0.0651 0.3694 0.9270
vn 0.0651 0.3694 -0.9270
vn 0.1712 0.9709 -0.1675
vn 0.1153 0.6541 0.7476
vn 0.1519 0.8616 -0.4842
vn 0.1519 0.8616 0.4842
vn 0.1153 0.6541 -0.7476
vn 0.1712 0.9709 0.1675
vn 0.2873 0.2411 -0.9270
vn 0.7552 0.6337 -0.1675
vn 0.6702 0.5624 -0.4842
vn 0.5088 0.4269 0.7476
vn 0.6702 0.5624 0.4842
vn 0.5088 0.4269 -0.7476
vn 0.7552 0.6337 0.1675
vn 0.2873 0.2411 0.9270
s 1
f 69/1/1 2/2/2 3/3/3
f 72/4/4 7/5/5 73/6/6
f 69/1/1 4/7/7 70/8/8
f 67/9/9 33/10/10 1/11/11
f 73/6/6 8/12/12 74/13/13
f 70/8/8 5/14/14 71/15/15
f 68/16/16 1/11/11 2/2/2
f 66/17/17 74/13/13 8/12/12
f 72/4/4 5/14/14 6/18/18
f 3/3/3 12/19/19 4/7/7
f 1/11/11 33/20/10 9/21/20
f 7/5/5 16/22/21 8/12/12
f 4/7/7 13/23/22 5/14/14
f 1/11/11 10/24/23 2/2/2
f 66/25/17 8/12/12 16/22/21
f 6/18/18 13/23/22 14/26/24
f 2/2/2 11/27/25 3/3/3
f 6/18/18 15/28/26 7/5/5
f 9/21/20 18/29/27 10/24/23
f 66/30/17 16/22/21 24/31/28
f 14/26/24 21/32/29 22/33/30
f 11/27/25 18/29/27 19/34/31
f 15/28/26 22/33/30 23/35/32
f 12/19/19 19/34/31 20/36/33
f 9/21/20 33/37/10 17/38/34
f 15/28/26 24/31/28 16/22/21
f 12/19/19 21/32/29 13/23/22
f 22/33/30 31/39/35 23/35/32
f 19/34/31 28/40/36 20/36/33
f 17/38/34 33/41/10 25/42/37
f 23/35/32 32/43/38 24/31/28
f 20/36/33 29/44/39 21/32/29
f 17/38/34 26/45/40 18/29/27
f 66/46/17 24/31/28 32/43/38
f 21/32/29 30/47/41 22/33/30
f 18/29/27 27/48/42 19/34/31
f 28/40/36 38/49/43 29/44/39
f 25/42/37 35/50/44 26/45/40
f 66/51/17 32/43/38 41/52/45
f 29/44/39 39/53/46 30/47/41
f 26/45/40 36/54/47 27/48/42
f 31/39/35 39/53/46 40/55/48
f 27/48/42 37/56/49 28/40/36
f 25/42/37 33/57/10 34/58/50
f 31/39/35 41/52/45 32/43/38
f 35/50/44 44/59/51 36/54/47
f 39/53/46 48/60/52 40/55/48
f 36/54/47 45/61/53 37/56/49
f 34/58/50 33/62/10 42/63/54
f 40/55/48 49/64/55 41/52/45
f 37/56/49 46/65/56 38/49/43
f 35/50/44 42/63/54 43/66/57
f 66/67/17 41/52/45 49/64/55
f 39/53/46 46/65/56 47/68/58
f 42/69/54 33/70/10 50/71/59
f 48/72/52 57/73/60 49/74/55
f 45/75/53 54/76/61 46/77/56
f 42/69/54 51/78/62 43/79/57
f 66/80/17 49/74/55 57/73/60
f 47/81/58 54/76/61 55/82/63
f 43/79/57 52/83/64 44/84/51
f 47/81/58 56/85/65 48/72/52
f 44/84/51 53/86/66 45/75/53
f 66/87/17 57/73/60 65/88/67
f 55/82/63 62/89/68 63/90/69
f 52/83/64 59/91/70 60/92/71
f 55/82/63 64/93/72 56/85/65
f 52/83/64 61/94/73 53/86/66
f 50/71/59 33/95/10 58/96/74
f 56/85/65 65/88/67 57/73/60
f 53/86/66 62/89/68 54/76/61
f 50/71/59 59/91/70 51/78/62
f 63/90/69 73/6/6 64/93/72
f 60/92/71 70/8/8 61/94/73
f 58/96/74 33/97/10 67/9/9
f 64/93/72 74/13/13 65/88/67
f 61/94/73 71/15/15 62/89/68
f 59/91/70 67/9/9 68/16/16
f 66/98/17 65/88/67 74/13/13
f 63/90/69 71/15/15 72/4/4
f 60/92/71 68/16/16 69/1/1
f 69/1/1 68/16/16 2/2/2
f 72/4/4 6/18/18 7/5/5
f 69/1/1 3/3/3 4/7/7
f 73/6/6 7/5/5 8/12/12
f 70/8/8 4/7/7 5/14/14
f 68/16/16 67/9/9 1/11/11
f 72/4/4 71/15/15 5/14/14
f 3/3/3 11/27/25 12/19/19
f 7/5/5 15/28/26 16/22/21
f 4/7/7 12/19/19 13/23/22
f 1/11/11 9/21/20 10/24/23
f 6/18/18 5/14/14 13/23/22
f 2/2/2 10/24/23 11/27/25
f 6/18/18 14/26/24 15/28/26
f 9/21/20 17/38/34 18/29/27
f 14/26/24 13/23/22 21/32/29
f 11/27/25 10/24/23 18/29/27
f 15/28/26 14/26/24 22/33/30
f 12/19/19 11/27/25 19/34/31
f 15/28/26 23/35/32 24/31/28
f 12/19/19 20/36/33 21/32/29
f 22/33/30 30/47/41 31/39/35
f 19/34/31 27/48/42 28/40/36
f 23/35/32 31/39/35 32/43/38
f 20/36/33 28/40/36 29/44/39
f 17/38/34 25/42/37 26/45/40
f 21/32/29 29/44/39 30/47/41
f 18/29/27 26/45/40 27/48/42
f 28/40/36 37/56/49 38/49/43
f 25/42/37 34/58/50 35/50/44
f 29/44/39 38/49/43 39/53/46
f 26/45/40 35/50/44 36/54/47
f 31/39/35 30/47/41 39/53/46
f 27/48/42 36/54/47 37/56/49
f 31/39/35 40/55/48 41/52/45
f 35/50/44 43/66/57 44/59/51
f 39/53/46 47/68/58 48/60/52
f 36/54/47 44/59/51 45/61/53
f 40/55/48 48/60/52 49/64/55
f 37/56/49 45/61/53 46/65/56
f 35/50/44 34/58/50 42/63/54
f 39/53/46 38/49/43 46/65/56
f 48/72/52 56/85/65 57/73/60
f 45/75/53 53/86/66 54/76/61
f 42/69/54 50/71/59 51/78/62
f 47/81/58 46/77/56 54/76/61
f 43/79/57 51/78/62 52/83/64
f 47/81/58 55/82/63 56/85/65
f 44/84/51 52/83/64 53/86/66
f 55/82/63 54/76/61 62/89/68
f 52/83/64 51/78/62 59/91/70
f 55/82/63 63/90/69 64/93/72
f 52/83/64 60/92/71 61/94/73
f 56/85/65 64/93/72 65/88/67
f 53/86/66 61/94/73 62/89/68
f 50/71/59 58/96/74 59/91/70
f 63/90/69 72/4/4 73/6/6
f 60/92/71 69/1/1 70/8/8
f 64/93/72 73/6/6 74/13/13
f 61/94/73 70/8/8 71/15/15
f 59/91/70 58/96/74 67/9/9
f 63/90/69 62/89/68 71/15/15
f 60/92/71 59/91/70 68/16/16
